<?xml version="1.0" encoding="UTF-8"?>
<svg xmlns="http://www.w3.org/2000/svg" xmlns:xlink="http://www.w3.org/1999/xlink" width="216px" height="144px" viewBox="0 0 216 144" version="1.1">
  <metadata xmlns:gridsvg="http://www.stat.auckland.ac.nz/~paul/R/gridSVG/">
    <gridsvg:generator name="gridSVG" version="1.7-7" time="2026-03-11 23:16:38.19827"/>
    <gridsvg:argument name="name" value="gglogo_poly_w_spline.svg"/>
    <gridsvg:argument name="exportCoords" value="none"/>
    <gridsvg:argument name="exportMappings" value="none"/>
    <gridsvg:argument name="exportJS" value="none"/>
    <gridsvg:argument name="res" value="72"/>
    <gridsvg:argument name="prefix" value=""/>
    <gridsvg:argument name="addClasses" value="FALSE"/>
    <gridsvg:argument name="indent" value="TRUE"/>
    <gridsvg:argument name="htmlWrapper" value="FALSE"/>
    <gridsvg:argument name="usePaths" value="vpPaths"/>
    <gridsvg:argument name="uniqueNames" value="TRUE"/>
    <gridsvg:separator name="id.sep" value="."/>
    <gridsvg:separator name="gPath.sep" value="::"/>
    <gridsvg:separator name="vpPath.sep" value="::"/>
  </metadata>
  <g transform="translate(0, 144) scale(1, -1)">
    <g id="gridSVG" fill="none" stroke="rgb(0,0,0)" stroke-dasharray="none" stroke-width="0.75" font-size="12" font-family="Helvetica, Arial, FreeSans, Liberation Sans, Nimbus Sans L, sans-serif" opacity="1" stroke-linecap="round" stroke-linejoin="round" stroke-miterlimit="10" stroke-opacity="1" fill-opacity="0" font-weight="normal" font-style="normal">
      <g id="GRID.VP.1.1">
        <g id="GRID.xspline.7.1">
          <path id="GRID.xspline.7.1.1" d="M 19.68 72.11 L 20.61 72.06 L 21.84 72.03 L 23.35 72.01 L 25 72 L 26.64 72 L 28.1 72 L 29.55 72 L 31.11 72 L 32.75 72 L 34.41 72.01 L 36 72.01 L 37.48 72.01 L 38.14 72.01 L 39.58 72.01 L 41.11 72.02 L 42.73 72.03 L 44.37 72.03 L 45.95 72.05 L 47.42 72.06 L 48 72.06 L 49.43 72.08 L 50.97 72.1 L 52.61 72.14 L 54.27 72.17 L 55.87 72.22 L 57.37 72.28 L 58.04 72.3 L 59.49 72.37 L 61.03 72.46 L 62.67 72.58 L 64.34 72.72 L 65.94 72.88 L 67.43 73.06 L 68.14 73.16 L 69.57 73.38 L 71.09 73.65 L 72.71 73.98 L 74.36 74.38 L 75.95 74.81 L 77.42 75.27 L 78.24 75.56 L 79.61 76.08 L 81.06 76.69 L 82.6 77.42 L 84.18 78.23 L 85.7 79.09 L 87.12 79.97 L 88.28 80.75 L 89.53 81.65 L 90.84 82.66 L 92.23 83.79 L 93.66 85.03 L 95.07 86.31 L 96.41 87.59 L 97.68 88.84 L 98.14 89.31 L 99.32 90.52 L 100.56 91.84 L 101.88 93.27 L 103.25 94.76 L 104.62 96.25 L 105.94 97.69 L 107.19 99.03 L 108.18 100.08 L 109.44 101.38 L 110.76 102.71 L 112.17 104.05 L 113.62 105.36 L 115.05 106.56 L 116.42 107.61 L 117.7 108.48 L 118.28 108.84 L 119.72 109.62 L 121.25 110.27 L 122.87 110.78 L 124.52 111.1 L 126.09 111.23 L 127.56 111.16 L 128.32 111.05 L 130.04 110.62 L 131.75 110.04 L 133.27 109.47 L 134.35 109.12 L 134.84 109.15 L 134.87 109.26 L 134.67 109.78 L 134.06 110.66 L 133.07 111.87 L 131.8 113.29 L 130.4 114.78 L 128.98 116.22 L 128.32 116.87 L 127.06 118.07 L 125.72 119.29 L 124.29 120.52 L 122.82 121.73 L 121.36 122.83 L 119.98 123.8 L 118.68 124.63 L 118.28 124.87 L 116.86 125.64 L 115.35 126.33 L 113.75 126.93 L 112.12 127.41 L 110.54 127.74 L 109.07 127.91 L 108.18 127.94 L 106.75 127.89 L 105.24 127.7 L 103.62 127.35 L 101.99 126.86 L 100.42 126.25 L 98.96 125.57 L 98.14 125.13 L 96.87 124.38 L 95.52 123.5 L 94.1 122.47 L 92.64 121.32 L 91.2 120.12 L 89.84 118.91 L 88.55 117.72 L 88.28 117.45 L 87.1 116.3 L 85.85 115.03 L 84.53 113.65 L 83.15 112.19 L 81.77 110.71 L 80.45 109.26 L 79.2 107.89 L 78.24 106.82 L 77.05 105.5 L 75.8 104.12 L 74.48 102.66 L 73.1 101.16 L 71.73 99.67 L 70.42 98.27 L 69.18 96.97 L 68.14 95.9 L 66.9 94.65 L 65.59 93.36 L 64.2 92.04 L 62.76 90.72 L 61.34 89.45 L 59.98 88.29 L 58.71 87.24 L 58.04 86.7 L 56.71 85.69 L 55.31 84.66 L 53.82 83.63 L 52.29 82.63 L 50.8 81.71 L 49.4 80.89 L 48.09 80.18 L 48 80.13 L 46.62 79.43 L 45.15 78.74 L 43.6 78.06 L 42.01 77.43 L 40.48 76.86 L 39.05 76.38 L 38.14 76.09 L 36.73 75.68 L 35.21 75.28 L 33.59 74.89 L 31.95 74.53 L 30.36 74.22 L 28.88 73.96 L 28.1 73.83 L 26.52 73.6 L 24.88 73.38 L 23.24 73.17 L 21.76 72.98 L 20.55 72.82 L 19.68 72.7 L 19.46 72.66 L 19.25 72.62 L 19.07 72.58 L 18.91 72.55 L 18.78 72.51 L 18.66 72.47 L 18.57 72.44 L 18.51 72.4 L 18.48 72.37 L 18.47 72.33 L 18.49 72.3 L 18.53 72.27 L 18.61 72.24 L 18.71 72.22 L 18.83 72.19 L 18.98 72.17 L 19.15 72.15 L 19.34 72.13 L 19.55 72.11 Z" fill-rule="nonzero" fill="rgb(153,217,234)" stroke="rgb(255,255,255)" stroke-width="1.13" stroke-opacity="1" fill-opacity="1"/>
        </g>
        <g id="GRID.xspline.8.1">
          <path id="GRID.xspline.8.1.1" d="M 108.84 99.14 L 109.43 98.48 L 110.22 97.59 L 111.18 96.48 L 112.24 95.27 L 113.29 94.08 L 114.01 93.27 L 114.96 92.21 L 115.99 91.08 L 117.08 89.91 L 118.18 88.75 L 119.22 87.68 L 120.18 86.72 L 120.38 86.52 L 121.39 85.56 L 122.47 84.57 L 123.6 83.58 L 124.72 82.64 L 125.76 81.8 L 126.58 81.18 L 127.62 80.44 L 128.75 79.67 L 129.95 78.92 L 131.13 78.23 L 132.23 77.63 L 132.77 77.36 L 133.88 76.82 L 135.09 76.29 L 136.38 75.77 L 137.62 75.31 L 138.77 74.93 L 139.14 74.81 L 140.29 74.48 L 141.52 74.16 L 142.81 73.86 L 144.04 73.61 L 145.17 73.4 L 145.33 73.37 L 146.47 73.19 L 147.71 73.02 L 149 72.87 L 150.24 72.73 L 151.39 72.63 L 151.47 72.62 L 152.6 72.53 L 153.84 72.45 L 155.14 72.37 L 156.4 72.31 L 157.56 72.26 L 157.66 72.26 L 158.81 72.22 L 160.08 72.18 L 161.41 72.15 L 162.69 72.12 L 163.86 72.1 L 164.03 72.1 L 165.19 72.08 L 166.45 72.06 L 167.75 72.05 L 169 72.04 L 170.14 72.03 L 170.22 72.03 L 171.36 72.03 L 172.6 72.02 L 173.9 72.02 L 175.16 72.01 L 176.33 72.01 L 176.42 72.01 L 177.57 72.01 L 178.84 72.01 L 180.17 72.01 L 181.45 72 L 182.62 72 L 182.79 72 L 183.95 72 L 185.2 72 L 186.51 72 L 187.75 72 L 188.89 72 L 188.98 72 L 190.13 72 L 191.31 72.01 L 192.45 72.03 L 193.38 72.08 L 194.03 72.15 L 194.17 72.17 L 194.3 72.2 L 194.4 72.22 L 194.49 72.26 L 194.56 72.29 L 194.61 72.33 L 194.64 72.37 L 194.66 72.41 L 194.65 72.46 L 194.62 72.5 L 194.57 72.55 L 194.5 72.59 L 194.42 72.64 L 194.31 72.68 L 194.19 72.72 L 194.06 72.77 L 193.91 72.81 L 193.79 72.84 L 193.08 72.98 L 192.12 73.13 L 190.96 73.29 L 189.77 73.45 L 188.62 73.61 L 187.5 73.77 L 186.27 73.97 L 184.98 74.21 L 183.72 74.45 L 182.57 74.7 L 182.43 74.73 L 181.3 74.99 L 180.06 75.3 L 178.75 75.66 L 177.49 76.03 L 176.33 76.39 L 176.06 76.48 L 174.94 76.86 L 173.74 77.31 L 172.48 77.81 L 171.27 78.32 L 170.15 78.82 L 169.86 78.95 L 168.81 79.47 L 167.66 80.06 L 166.44 80.72 L 165.24 81.41 L 164.13 82.08 L 163.67 82.37 L 162.63 83.04 L 161.51 83.81 L 160.32 84.66 L 159.13 85.53 L 158.04 86.37 L 157.3 86.95 L 156.3 87.78 L 155.23 88.68 L 154.11 89.67 L 153 90.68 L 151.98 91.65 L 151.17 92.44 L 150.24 93.38 L 149.26 94.4 L 148.21 95.51 L 147.17 96.63 L 146.19 97.71 L 145.27 98.71 L 144.36 99.72 L 143.36 100.81 L 142.3 101.95 L 141.22 103.08 L 140.19 104.13 L 139.23 105.08 L 139.14 105.16 L 138.12 106.11 L 137.02 107.07 L 135.84 108.03 L 134.67 108.9 L 133.59 109.64 L 132.77 110.14 L 131.64 110.74 L 130.42 111.26 L 129.15 111.69 L 127.92 111.97 L 126.8 112.11 L 126.58 112.13 L 125.46 112.12 L 124.24 111.99 L 122.95 111.71 L 121.7 111.31 L 120.54 110.82 L 120.38 110.74 L 119.35 110.19 L 118.22 109.5 L 117.02 108.67 L 115.83 107.77 L 114.74 106.87 L 114.01 106.24 L 112.95 105.25 L 111.85 104.19 L 110.78 103.12 L 109.84 102.16 L 109.12 101.43 L 108.84 101.15 L 108.58 100.89 L 108.38 100.68 L 108.23 100.49 L 108.13 100.33 L 108.1 100.17 L 108.14 100.01 L 108.24 99.83 L 108.4 99.63 L 108.61 99.39 Z" fill-rule="nonzero" fill="rgb(0,162,232)" stroke="rgb(255,255,255)" stroke-width="1.13" stroke-opacity="1" fill-opacity="1"/>
        </g>
        <g id="GRID.xspline.9.1">
          <path id="GRID.xspline.9.1.1" d="M 196.32 71.89 L 195.39 71.94 L 194.16 71.97 L 192.65 71.99 L 191 72 L 189.36 72 L 187.9 72 L 186.45 72 L 184.89 72 L 183.25 72 L 181.59 71.99 L 180 71.99 L 178.52 71.99 L 177.86 71.99 L 176.42 71.99 L 174.89 71.98 L 173.27 71.97 L 171.63 71.97 L 170.05 71.95 L 168.58 71.94 L 168 71.94 L 166.57 71.92 L 165.03 71.9 L 163.39 71.86 L 161.73 71.83 L 160.13 71.78 L 158.63 71.72 L 157.96 71.7 L 156.51 71.63 L 154.97 71.54 L 153.33 71.42 L 151.66 71.28 L 150.06 71.12 L 148.57 70.94 L 147.86 70.84 L 146.43 70.62 L 144.91 70.35 L 143.29 70.02 L 141.64 69.62 L 140.05 69.19 L 138.58 68.73 L 137.76 68.44 L 136.39 67.92 L 134.94 67.31 L 133.4 66.58 L 131.82 65.77 L 130.3 64.91 L 128.88 64.03 L 127.72 63.25 L 126.47 62.35 L 125.16 61.34 L 123.77 60.21 L 122.34 58.97 L 120.93 57.69 L 119.59 56.41 L 118.32 55.16 L 117.86 54.69 L 116.68 53.48 L 115.44 52.16 L 114.12 50.73 L 112.75 49.24 L 111.38 47.75 L 110.06 46.31 L 108.81 44.97 L 107.82 43.92 L 106.56 42.62 L 105.24 41.29 L 103.83 39.95 L 102.38 38.64 L 100.95 37.44 L 99.58 36.39 L 98.3 35.52 L 97.72 35.16 L 96.28 34.38 L 94.75 33.73 L 93.13 33.22 L 91.48 32.9 L 89.91 32.77 L 88.44 32.84 L 87.68 32.95 L 85.96 33.38 L 84.25 33.96 L 82.73 34.53 L 81.65 34.88 L 81.16 34.85 L 81.13 34.74 L 81.33 34.22 L 81.94 33.34 L 82.93 32.13 L 84.2 30.71 L 85.6 29.22 L 87.02 27.78 L 87.68 27.13 L 88.94 25.93 L 90.28 24.71 L 91.71 23.48 L 93.18 22.27 L 94.64 21.17 L 96.02 20.2 L 97.32 19.37 L 97.72 19.13 L 99.14 18.36 L 100.65 17.67 L 102.25 17.07 L 103.88 16.59 L 105.46 16.26 L 106.93 16.09 L 107.82 16.06 L 109.25 16.11 L 110.76 16.3 L 112.38 16.65 L 114.01 17.14 L 115.58 17.75 L 117.04 18.43 L 117.86 18.87 L 119.13 19.62 L 120.48 20.5 L 121.9 21.53 L 123.36 22.68 L 124.8 23.88 L 126.16 25.09 L 127.45 26.28 L 127.72 26.55 L 128.9 27.7 L 130.15 28.97 L 131.47 30.35 L 132.85 31.81 L 134.23 33.29 L 135.55 34.74 L 136.8 36.11 L 137.76 37.18 L 138.95 38.5 L 140.2 39.88 L 141.52 41.34 L 142.9 42.84 L 144.27 44.33 L 145.58 45.73 L 146.82 47.03 L 147.86 48.1 L 149.1 49.35 L 150.41 50.64 L 151.8 51.96 L 153.24 53.28 L 154.66 54.55 L 156.02 55.71 L 157.29 56.76 L 157.96 57.3 L 159.29 58.31 L 160.69 59.34 L 162.18 60.37 L 163.71 61.37 L 165.2 62.29 L 166.6 63.11 L 167.91 63.82 L 168 63.87 L 169.38 64.57 L 170.85 65.26 L 172.4 65.94 L 173.99 66.57 L 175.52 67.14 L 176.95 67.62 L 177.86 67.91 L 179.27 68.32 L 180.79 68.72 L 182.41 69.11 L 184.05 69.47 L 185.64 69.78 L 187.12 70.04 L 187.9 70.17 L 189.48 70.4 L 191.12 70.62 L 192.76 70.83 L 194.24 71.02 L 195.45 71.18 L 196.32 71.3 L 196.54 71.34 L 196.75 71.38 L 196.93 71.42 L 197.09 71.45 L 197.22 71.49 L 197.34 71.53 L 197.43 71.56 L 197.49 71.6 L 197.52 71.63 L 197.53 71.67 L 197.51 71.7 L 197.47 71.73 L 197.39 71.76 L 197.29 71.78 L 197.17 71.81 L 197.02 71.83 L 196.85 71.85 L 196.66 71.87 L 196.45 71.89 Z" fill-rule="nonzero" fill="rgb(153,217,234)" stroke="rgb(255,255,255)" stroke-width="1.13" stroke-opacity="1" fill-opacity="1"/>
        </g>
        <g id="GRID.xspline.10.1">
          <path id="GRID.xspline.10.1.1" d="M 107.16 44.86 L 106.57 45.52 L 105.78 46.41 L 104.82 47.52 L 103.76 48.73 L 102.71 49.92 L 101.99 50.73 L 101.04 51.79 L 100.01 52.92 L 98.92 54.09 L 97.82 55.25 L 96.78 56.32 L 95.82 57.28 L 95.62 57.48 L 94.61 58.44 L 93.53 59.43 L 92.4 60.42 L 91.28 61.36 L 90.24 62.2 L 89.42 62.82 L 88.38 63.56 L 87.25 64.33 L 86.05 65.08 L 84.87 65.77 L 83.77 66.37 L 83.23 66.64 L 82.12 67.18 L 80.91 67.71 L 79.62 68.23 L 78.38 68.69 L 77.23 69.07 L 76.86 69.19 L 75.71 69.52 L 74.48 69.84 L 73.19 70.14 L 71.96 70.39 L 70.83 70.6 L 70.67 70.63 L 69.53 70.81 L 68.29 70.98 L 67 71.13 L 65.76 71.27 L 64.61 71.37 L 64.53 71.38 L 63.4 71.47 L 62.16 71.55 L 60.86 71.63 L 59.6 71.69 L 58.44 71.74 L 58.34 71.74 L 57.19 71.78 L 55.92 71.82 L 54.59 71.85 L 53.31 71.88 L 52.14 71.9 L 51.97 71.9 L 50.81 71.92 L 49.55 71.94 L 48.25 71.95 L 47 71.96 L 45.86 71.97 L 45.78 71.97 L 44.64 71.97 L 43.4 71.98 L 42.1 71.98 L 40.84 71.99 L 39.67 71.99 L 39.58 71.99 L 38.43 71.99 L 37.16 71.99 L 35.83 71.99 L 34.55 72 L 33.38 72 L 33.21 72 L 32.05 72 L 30.8 72 L 29.49 72 L 28.25 72 L 27.11 72 L 27.02 72 L 25.87 72 L 24.69 71.99 L 23.55 71.97 L 22.62 71.92 L 21.97 71.85 L 21.83 71.83 L 21.7 71.8 L 21.6 71.78 L 21.51 71.74 L 21.44 71.71 L 21.39 71.67 L 21.36 71.63 L 21.34 71.59 L 21.35 71.54 L 21.38 71.5 L 21.43 71.45 L 21.5 71.41 L 21.58 71.36 L 21.69 71.32 L 21.81 71.28 L 21.94 71.23 L 22.09 71.19 L 22.21 71.16 L 22.92 71.02 L 23.88 70.87 L 25.04 70.71 L 26.23 70.55 L 27.38 70.39 L 28.5 70.23 L 29.73 70.03 L 31.02 69.79 L 32.28 69.55 L 33.43 69.3 L 33.57 69.27 L 34.7 69.01 L 35.94 68.7 L 37.25 68.34 L 38.51 67.97 L 39.67 67.61 L 39.94 67.52 L 41.06 67.14 L 42.26 66.69 L 43.52 66.19 L 44.73 65.68 L 45.85 65.18 L 46.14 65.05 L 47.19 64.53 L 48.34 63.94 L 49.56 63.28 L 50.76 62.59 L 51.87 61.92 L 52.33 61.63 L 53.37 60.96 L 54.49 60.19 L 55.68 59.34 L 56.87 58.47 L 57.96 57.63 L 58.7 57.05 L 59.7 56.22 L 60.77 55.32 L 61.89 54.33 L 63 53.32 L 64.02 52.35 L 64.83 51.56 L 65.76 50.62 L 66.74 49.6 L 67.79 48.49 L 68.83 47.37 L 69.81 46.29 L 70.73 45.29 L 71.64 44.28 L 72.64 43.19 L 73.7 42.05 L 74.78 40.92 L 75.81 39.87 L 76.77 38.92 L 76.86 38.84 L 77.88 37.89 L 78.98 36.93 L 80.16 35.97 L 81.33 35.1 L 82.41 34.36 L 83.23 33.86 L 84.36 33.26 L 85.58 32.74 L 86.85 32.31 L 88.08 32.03 L 89.2 31.89 L 89.42 31.87 L 90.54 31.88 L 91.76 32.01 L 93.05 32.29 L 94.3 32.69 L 95.46 33.18 L 95.62 33.26 L 96.65 33.81 L 97.78 34.5 L 98.98 35.33 L 100.17 36.23 L 101.26 37.13 L 101.99 37.76 L 103.05 38.75 L 104.15 39.81 L 105.22 40.88 L 106.16 41.84 L 106.88 42.57 L 107.16 42.85 L 107.42 43.11 L 107.62 43.32 L 107.77 43.51 L 107.87 43.67 L 107.9 43.83 L 107.86 43.99 L 107.76 44.17 L 107.6 44.37 L 107.39 44.61 Z" fill-rule="nonzero" fill="rgb(0,162,232)" stroke="rgb(255,255,255)" stroke-width="1.13" stroke-opacity="1" fill-opacity="1"/>
        </g>
      </g>
    </g>
  </g>
</svg>