<?xml version="1.0" encoding="UTF-8"?>
<svg xmlns="http://www.w3.org/2000/svg" xmlns:xlink="http://www.w3.org/1999/xlink" width="216px" height="144px" viewBox="0 0 216 144" version="1.1">
  <metadata xmlns:gridsvg="http://www.stat.auckland.ac.nz/~paul/R/gridSVG/">
    <gridsvg:generator name="gridSVG" version="1.7-7" time="2026-03-11 23:16:38.290759"/>
    <gridsvg:argument name="name" value="gglogo_wire_black_spline.svg"/>
    <gridsvg:argument name="exportCoords" value="none"/>
    <gridsvg:argument name="exportMappings" value="none"/>
    <gridsvg:argument name="exportJS" value="none"/>
    <gridsvg:argument name="res" value="72"/>
    <gridsvg:argument name="prefix" value=""/>
    <gridsvg:argument name="addClasses" value="FALSE"/>
    <gridsvg:argument name="indent" value="TRUE"/>
    <gridsvg:argument name="htmlWrapper" value="FALSE"/>
    <gridsvg:argument name="usePaths" value="vpPaths"/>
    <gridsvg:argument name="uniqueNames" value="TRUE"/>
    <gridsvg:separator name="id.sep" value="."/>
    <gridsvg:separator name="gPath.sep" value="::"/>
    <gridsvg:separator name="vpPath.sep" value="::"/>
  </metadata>
  <g transform="translate(0, 144) scale(1, -1)">
    <g id="gridSVG" fill="none" stroke="rgb(0,0,0)" stroke-dasharray="none" stroke-width="0.75" font-size="12" font-family="Helvetica, Arial, FreeSans, Liberation Sans, Nimbus Sans L, sans-serif" opacity="1" stroke-linecap="round" stroke-linejoin="round" stroke-miterlimit="10" stroke-opacity="1" fill-opacity="0" font-weight="normal" font-style="normal">
      <g id="GRID.VP.1.1">
        <g id="GRID.xspline.13.1">
          <polyline id="GRID.xspline.13.1.1" points="18,72.63 18.25,72.65 19.34,72.74 20.71,72.85 21.8,72.95 22.69,73.03 23.57,73.12 24.53,73.22 25.52,73.34 26.46,73.45 27.32,73.57 28.16,73.69 29.07,73.83 30.02,73.98 30.93,74.15 31.77,74.3 32.62,74.48 33.56,74.68 34.56,74.91 35.52,75.14 36.4,75.37 37.28,75.61 38.24,75.89 39.24,76.2 40.2,76.51 41.09,76.81 41.97,77.14 42.93,77.51 43.93,77.91 44.89,78.32 45.78,78.72 46.66,79.14 47.61,79.61 48.61,80.13 49.55,80.63 50.4,81.12 51.25,81.61 52.16,82.17 53.1,82.78 54.01,83.38 54.85,83.96 55.71,84.57 56.65,85.27 57.65,86.04 58.6,86.79 59.48,87.51 60.34,88.24 61.28,89.05 62.26,89.92 63.21,90.79 64.07,91.6 64.17,91.69 65.01,92.5 65.92,93.39 66.87,94.35 67.8,95.29 68.65,96.18 68.86,96.4 69.68,97.28 70.57,98.23 71.51,99.25 72.41,100.24 73.23,101.15 73.49,101.45 74.28,102.34 75.14,103.3 76.03,104.32 76.9,105.31 77.71,106.23 77.94,106.5 78.73,107.4 79.59,108.38 80.51,109.43 81.41,110.45 82.25,111.39 82.57,111.74 83.39,112.65 84.28,113.63 85.22,114.64 86.13,115.61 86.97,116.49 87.26,116.78 88.11,117.64 89.03,118.54 89.99,119.47 90.93,120.34 91.79,121.11 91.95,121.25 92.83,122 93.79,122.78 94.78,123.55 95.72,124.25 96.58,124.84 97.42,125.38 98.33,125.93 99.28,126.45 100.18,126.9 101.03,127.28 101.88,127.61 102.82,127.93 103.82,128.21 104.77,128.43 105.66,128.59 106.54,128.69 107.5,128.75 108.5,128.75 109.46,128.69 110.34,128.59 111.23,128.43 112.18,128.21 113.18,127.93 114.12,127.61 114.97,127.28 115.82,126.9 116.72,126.45 117.67,125.93 118.58,125.38 119.42,124.84 120.28,124.25 121.22,123.55 122.21,122.78 123.17,122 124.05,121.25 124.9,120.49 125.82,119.65 126.79,118.73 127.72,117.81 128.58,116.95 128.74,116.78 129.56,115.93 130.45,114.99 131.39,113.99 132.3,112.99 133.15,112.06 133.43,111.74 134.24,110.83 135.12,109.84 136.04,108.8 136.94,107.78 137.75,106.85 138.06,106.5 138.85,105.59 139.71,104.62 140.6,103.6 141.47,102.61 142.28,101.7 142.51,101.45 143.31,100.56 144.18,99.59 145.11,98.58 146.02,97.59 146.86,96.69 147.14,96.4 147.97,95.53 148.88,94.6 149.84,93.64 150.76,92.72 151.61,91.9 151.83,91.69 152.69,90.89 153.62,90.03 154.61,89.15 155.55,88.33 156.42,87.59 156.52,87.51 157.4,86.79 158.35,86.04 159.35,85.27 160.29,84.57 161.15,83.96 161.99,83.38 162.9,82.78 163.84,82.17 164.75,81.61 165.6,81.12 166.45,80.63 167.39,80.13 168.39,79.61 169.34,79.14 170.22,78.72 171.11,78.32 172.07,77.91 173.07,77.51 174.03,77.14 174.91,76.81 175.8,76.51 176.76,76.2 177.76,75.89 178.72,75.61 179.6,75.37 180.48,75.14 181.44,74.91 182.44,74.68 183.38,74.48 184.23,74.3 185.07,74.15 185.98,73.98 186.93,73.83 187.84,73.69 188.68,73.57 189.54,73.45 190.48,73.34 191.47,73.22 192.43,73.12 193.31,73.03 194.2,72.95 195.29,72.85 196.66,72.74 197.75,72.65 198,72.63" stroke="rgb(0,0,0)" stroke-width="1.13" fill="none" stroke-opacity="1" fill-opacity="0"/>
        </g>
        <g id="GRID.xspline.14.1">
          <polyline id="GRID.xspline.14.1.1" points="18,71.37 18.25,71.35 19.34,71.26 20.71,71.15 21.8,71.05 22.69,70.97 23.57,70.88 24.53,70.78 25.52,70.66 26.46,70.55 27.32,70.43 28.16,70.31 29.07,70.17 30.02,70.02 30.93,69.85 31.77,69.7 32.62,69.52 33.56,69.32 34.56,69.09 35.52,68.86 36.4,68.63 37.28,68.39 38.24,68.11 39.24,67.8 40.2,67.49 41.09,67.19 41.97,66.86 42.93,66.49 43.93,66.09 44.89,65.68 45.78,65.28 46.66,64.86 47.61,64.39 48.61,63.87 49.55,63.37 50.4,62.88 51.25,62.39 52.16,61.83 53.1,61.22 54.01,60.62 54.85,60.04 55.71,59.43 56.65,58.73 57.65,57.96 58.6,57.21 59.48,56.49 60.34,55.76 61.28,54.95 62.26,54.08 63.21,53.21 64.07,52.4 64.17,52.31 65.01,51.5 65.92,50.61 66.87,49.65 67.8,48.71 68.65,47.82 68.86,47.6 69.68,46.72 70.57,45.77 71.51,44.75 72.41,43.76 73.23,42.85 73.49,42.55 74.28,41.66 75.14,40.7 76.03,39.68 76.9,38.69 77.71,37.77 77.94,37.5 78.73,36.6 79.59,35.62 80.51,34.57 81.41,33.55 82.25,32.61 82.57,32.26 83.39,31.35 84.28,30.37 85.22,29.36 86.13,28.39 86.97,27.51 87.26,27.22 88.11,26.36 89.03,25.46 89.99,24.53 90.93,23.66 91.79,22.89 91.95,22.75 92.83,22 93.79,21.22 94.78,20.45 95.72,19.75 96.58,19.16 97.42,18.62 98.33,18.07 99.28,17.55 100.18,17.1 101.03,16.72 101.88,16.39 102.82,16.07 103.82,15.79 104.77,15.57 105.66,15.41 106.54,15.31 107.5,15.25 108.5,15.25 109.46,15.31 110.34,15.41 111.23,15.57 112.18,15.79 113.18,16.07 114.12,16.39 114.97,16.72 115.82,17.1 116.72,17.55 117.67,18.07 118.58,18.62 119.42,19.16 120.28,19.75 121.22,20.45 122.21,21.22 123.17,22 124.05,22.75 124.9,23.51 125.82,24.35 126.79,25.27 127.72,26.19 128.58,27.05 128.74,27.22 129.56,28.07 130.45,29.01 131.39,30.01 132.3,31.01 133.15,31.94 133.43,32.26 134.24,33.17 135.12,34.16 136.04,35.2 136.94,36.22 137.75,37.15 138.06,37.5 138.85,38.41 139.71,39.38 140.6,40.4 141.47,41.39 142.28,42.3 142.51,42.55 143.31,43.44 144.18,44.41 145.11,45.42 146.02,46.41 146.86,47.31 147.14,47.6 147.97,48.47 148.88,49.4 149.84,50.36 150.76,51.28 151.61,52.1 151.83,52.31 152.69,53.11 153.62,53.97 154.61,54.85 155.55,55.67 156.42,56.41 156.52,56.49 157.4,57.21 158.35,57.96 159.35,58.73 160.29,59.43 161.15,60.04 161.99,60.62 162.9,61.22 163.84,61.83 164.75,62.39 165.6,62.88 166.45,63.37 167.39,63.87 168.39,64.39 169.34,64.86 170.22,65.28 171.11,65.68 172.07,66.09 173.07,66.49 174.03,66.86 174.91,67.19 175.8,67.49 176.76,67.8 177.76,68.11 178.72,68.39 179.6,68.63 180.48,68.86 181.44,69.09 182.44,69.32 183.38,69.52 184.23,69.7 185.07,69.85 185.98,70.02 186.93,70.17 187.84,70.31 188.68,70.43 189.54,70.55 190.48,70.66 191.47,70.78 192.43,70.88 193.31,70.97 194.2,71.05 195.29,71.15 196.66,71.26 197.75,71.35 198,71.37" stroke="rgb(0,0,0)" stroke-width="1.13" fill="none" stroke-opacity="1" fill-opacity="0"/>
        </g>
        <g id="GRID.xspline.15.1">
          <polyline id="GRID.xspline.15.1.1" points="18,72 18.27,72 19.45,72 20.92,72 22.09,72 23.05,72 24,72 25.03,72 26.12,72 27.15,72 28.1,72 29.05,72 30.08,72 31.15,72 32.17,72 33.09,72 34,72 34.98,72 36.01,72 36.99,72.01 37.9,72.01 38.82,72.01 39.84,72.01 40.91,72.01 41.94,72.02 42.89,72.02 43.84,72.02 44.87,72.03 45.96,72.03 46.99,72.04 47.94,72.05 48.89,72.05 49.92,72.06 51.01,72.08 52.04,72.09 52.99,72.11 53.94,72.13 54.97,72.15 56.06,72.17 57.09,72.21 58.04,72.24 58.99,72.27 60.02,72.32 61.11,72.37 62.14,72.43 63.09,72.49 64.04,72.56 65.07,72.65 66.16,72.75 67.19,72.86 68.14,72.97 69.09,73.1 70.12,73.25 71.21,73.43 72.24,73.62 73.19,73.81 74.14,74.02 75.17,74.28 76.24,74.57 77.26,74.86 78.18,75.16 79.09,75.48 80.07,75.85 81.1,76.27 82.08,76.71 82.99,77.14 83.91,77.62 84.93,78.18 86,78.8 87.03,79.45 87.98,80.08 88.9,80.72 89.89,81.46 90.94,82.28 91.95,83.1 92.88,83.9 93.03,84.03 93.9,84.82 94.85,85.71 95.85,86.67 96.82,87.64 97.72,88.57 98.08,88.94 98.92,89.84 99.83,90.83 100.8,91.9 101.75,92.96 102.63,93.96 103.13,94.54 103.97,95.5 104.87,96.53 105.82,97.63 106.76,98.71 107.64,99.71 108.18,100.32 109.04,101.28 109.97,102.29 110.94,103.33 111.89,104.32 112.76,105.19 113.17,105.59 114.06,106.43 115.02,107.29 116.03,108.12 117,108.87 117.9,109.5 117.98,109.56 118.9,110.13 119.92,110.69 120.99,111.2 122.02,111.61 122.97,111.91 123.92,112.12 124.95,112.26 126.04,112.31 127.07,112.27 128.02,112.14 128.97,111.92 130,111.6 131.09,111.17 132.12,110.67 133.07,110.14 134.01,109.54 135.15,108.73 136.58,107.65 137.79,106.72 138.12,106.46 138.12,106.46" stroke="rgb(0,0,0)" stroke-width="1.13" fill="none" stroke-opacity="1" fill-opacity="0"/>
        </g>
        <g id="GRID.xspline.16.1">
          <polyline id="GRID.xspline.16.1.1" points="108.18,99.99 108.37,99.76 109.22,98.77 110.28,97.53 111.14,96.53 111.85,95.71 112.57,94.87 113.36,93.96 114.19,93.01 114.98,92.11 115.7,91.31 116.4,90.53 117.16,89.7 117.94,88.86 118.68,88.08 119.36,87.39 120.04,86.71 120.78,85.98 121.57,85.24 122.32,84.54 123.03,83.91 123.75,83.29 124.54,82.63 125.37,81.96 126.16,81.35 126.88,80.81 127.58,80.3 128.34,79.78 129.14,79.26 129.9,78.79 130.61,78.37 131.32,77.97 132.11,77.55 132.94,77.12 133.74,76.74 134.45,76.41 135.16,76.11 135.92,75.8 136.7,75.5 137.44,75.24 138.12,75.01 138.8,74.8 139.54,74.58 140.32,74.36 141.08,74.17 141.79,74 142.51,73.84 143.3,73.68 144.13,73.52 144.92,73.38 145.64,73.26 146.34,73.15 147.1,73.04 147.9,72.94 148.66,72.85 149.36,72.78 150.08,72.71 150.87,72.64 151.7,72.57 152.49,72.51 153.21,72.46 153.92,72.41 154.67,72.37 155.46,72.33 156.2,72.3 156.88,72.27 157.56,72.24 158.3,72.22 159.08,72.19 159.84,72.17 160.55,72.15 161.26,72.14 162.05,72.12 162.88,72.11 163.68,72.09 164.39,72.08 165.1,72.07 165.86,72.06 166.64,72.06 167.38,72.05 168.06,72.04 168.74,72.04 169.48,72.03 170.26,72.03 171.02,72.03 171.73,72.02 172.45,72.02 173.24,72.02 174.07,72.01 174.86,72.01 175.58,72.01 176.28,72.01 177.04,72.01 177.82,72.01 178.56,72.01 179.24,72.01 179.92,72 180.66,72 181.45,72 182.2,72 182.91,72 183.63,72 184.42,72 185.25,72 186.04,72 186.76,72 187.46,72 188.22,72 189.02,72 189.78,72 190.48,72 191.2,72 191.99,72 192.82,72 193.61,72 194.33,72 195.04,72 195.9,72 196.96,72 197.81,72 198,72" stroke="rgb(0,0,0)" stroke-width="1.13" fill="none" stroke-opacity="1" fill-opacity="0"/>
        </g>
        <g id="GRID.xspline.17.1">
          <polyline id="GRID.xspline.17.1.1" points="77.88,37.54 78.13,37.34 79.27,36.47 80.71,35.37 81.89,34.53 82.84,33.92 82.93,33.86 83.88,33.33 84.91,32.83 86,32.4 87.03,32.08 87.98,31.86 88.93,31.73 89.96,31.69 91.03,31.73 92.05,31.85 92.97,32.05 93.88,32.32 94.86,32.7 95.89,33.17 96.87,33.71 97.78,34.28 98.67,34.9 99.64,35.64 100.68,36.48 101.68,37.36 102.6,38.21 102.77,38.37 103.63,39.2 104.55,40.14 105.53,41.17 106.49,42.2 107.38,43.18 107.82,43.68 108.65,44.62 109.56,45.65 110.51,46.75 111.45,47.83 112.33,48.84 112.87,49.46 113.71,50.43 114.62,51.46 115.59,52.53 116.54,53.57 117.42,54.53 117.92,55.06 118.79,55.97 119.74,56.92 120.74,57.9 121.71,58.82 122.61,59.65 122.97,59.97 123.89,60.76 124.88,61.58 125.93,62.4 126.94,63.16 127.87,63.82 128.02,63.92 128.97,64.55 130,65.2 131.09,65.83 132.12,66.4 133.07,66.88 134.02,67.33 135.05,67.78 136.12,68.22 137.14,68.6 138.06,68.92 138.97,69.21 139.95,69.5 140.98,69.77 141.96,70.01 142.87,70.21 143.79,70.39 144.81,70.57 145.88,70.75 146.91,70.9 147.86,71.03 148.81,71.14 149.84,71.25 150.93,71.35 151.96,71.44 152.91,71.51 153.86,71.57 154.89,71.63 155.98,71.68 157.01,71.73 157.96,71.76 158.91,71.79 159.94,71.83 161.03,71.85 162.06,71.87 163.01,71.89 163.96,71.91 164.99,71.92 166.08,71.94 167.11,71.95 168.06,71.95 169.01,71.96 170.04,71.97 171.11,71.97 172.13,71.98 173.05,71.98 173.96,71.98 174.94,71.99 175.97,71.99 176.95,71.99 177.86,71.99 178.78,71.99 179.8,71.99 180.87,72 181.9,72 182.85,72 183.8,72 184.83,72 185.92,72 186.95,72 187.9,72 188.85,72 189.88,72 190.97,72 192,72 192.95,72 193.91,72 195.08,72 196.55,72 197.73,72 198,72" stroke="rgb(0,0,0)" stroke-width="1.13" fill="none" stroke-opacity="1" fill-opacity="0"/>
        </g>
        <g id="GRID.xspline.18.1">
          <polyline id="GRID.xspline.18.1.1" points="18,72 18.19,72 19.04,72 20.1,72 20.96,72 21.67,72 22.39,72 23.18,72 24.01,72 24.8,72 25.52,72 26.22,72 26.98,72 27.76,72 28.5,72 29.18,72 29.86,72 30.6,72 31.39,72 32.14,72 32.85,72 33.57,72 34.36,72 35.19,72 35.98,72 36.7,71.99 37.4,71.99 38.16,71.99 38.96,71.99 39.72,71.99 40.42,71.99 41.14,71.99 41.93,71.99 42.76,71.98 43.55,71.98 44.27,71.98 44.98,71.97 45.74,71.97 46.52,71.97 47.26,71.96 47.94,71.96 48.62,71.95 49.36,71.94 50.14,71.94 50.9,71.93 51.61,71.92 52.32,71.91 53.12,71.89 53.95,71.88 54.74,71.86 55.45,71.85 56.16,71.83 56.92,71.81 57.72,71.78 58.48,71.76 59.18,71.73 59.9,71.7 60.69,71.66 61.52,71.62 62.31,71.57 63.03,71.53 63.74,71.48 64.49,71.42 65.28,71.35 66.02,71.29 66.7,71.22 67.38,71.15 68.12,71.06 68.9,70.96 69.66,70.85 70.36,70.74 71.08,70.62 71.87,70.48 72.7,70.32 73.49,70.16 74.21,70 74.92,69.83 75.68,69.64 76.46,69.42 77.2,69.2 77.88,68.99 78.56,68.76 79.3,68.5 80.08,68.2 80.84,67.89 81.55,67.59 82.26,67.26 83.06,66.88 83.89,66.45 84.68,66.03 85.39,65.63 86.1,65.21 86.86,64.74 87.64,64.23 88.38,63.73 89.06,63.24 89.74,62.74 90.48,62.17 91.27,61.54 92.02,60.91 92.73,60.3 93.45,59.66 94.24,58.93 95.07,58.15 95.86,57.38 96.58,56.67 97.28,55.94 98.04,55.15 98.84,54.3 99.6,53.48 100.3,52.69 101.02,51.89 101.81,50.99 102.64,50.04 103.43,49.13 104.15,48.29 104.86,47.47 105.72,46.47 106.78,45.23 107.63,44.24 107.82,44.01" stroke="rgb(0,0,0)" stroke-width="1.13" fill="none" stroke-opacity="1" fill-opacity="0"/>
        </g>
      </g>
    </g>
  </g>
</svg>